# xmcd
#
# Track frame offsets:
#	150
#	13367
#	29920
#	53505
#	70759
#	89006
#	102725
#	121405
#	135061
#	153358
#	169550
#	184270
#	200226
#	216284
#	233160
#	248967
#	265074
#	282943
#	301695
#
# Disc length: 4243 seconds
#
# Revision: 0
# Processed by: cddbd v1.5.2PL0 Copyright (c) Steve Scherf et al.
# Submitted via: EasyCDDAExtractor 16.0.9.1
#
DISCID=15109113
DTITLE=Nu Urban Traxx Volume 218 US
DYEAR=2015
DGENRE=blues
TTITLE0=Janet Jackson ft. Missy Elliott\n - BurnItUp!\n
TTITLE1=Big Sean ft. Chris Brown and Ty Dolla $ign\n - Play No Games\n
TTITLE2=Fetty Wap\n - Again\n
TTITLE3=Big Grams\n - Fell In The Sun\n
TTITLE4=Deep Cotton ft. Jidenna\n - Let's Get Caught\n
TTITLE5=Empire Cast ft. Yazz\n - Bout 2 Blow\n
TTITLE6=R. City ft. Adam Levine and Lil Wayn\n - Locked Away\n [Remix\n]
TTITLE7=CeeLo Green\n - Sign Of The Times\n
TTITLE8=Mario ft. Rick Ross\n - Forever\n
TTITLE9=Tamar Braxton\n - Catfish\n
TTITLE10=Tink ft. Tazer\n - Wet Dollars\n
TTITLE11=Rae Sremmurd\n - Come Get Her\n
TTITLE12=Tank ft. Wale\n - You Don't Know\n
TTITLE13=Dougie F ft. Pitbull\n - On Purpose\n
TTITLE14=Jeezy\n - God\n
TTITLE15=Sharon Maree\n - Same Shhh\n
TTITLE16=Casey Veggies ft. Ty Dolla $ign\n - Wonderful\n
TTITLE17=Timbaland ft. Tink and Future\n - UFO\n
TTITLE18=August Alsina ft. Lil Wayne\n - Why I Do It\n
EXTD=
EXTT0=
EXTT1=
EXTT2=
EXTT3=
EXTT4=
EXTT5=
EXTT6=
EXTT7=
EXTT8=
EXTT9=
EXTT10=
EXTT11=
EXTT12=
EXTT13=
EXTT14=
EXTT15=
EXTT16=
EXTT17=
EXTT18=
PLAYORDER=
